HIERARCHY
ROOT hip
{
	OFFSET 0.000000 0.000000 0.000000
	CHANNELS 6 Xposition Yposition Zposition Xrotation Zrotation Yrotation 
	JOINT abdomen
	{
		OFFSET 0.000000 3.422050 0.000000
		CHANNELS 3 Xrotation Zrotation Yrotation 
		JOINT chest
		{
			OFFSET 0.000000 8.486693 -0.684411
			CHANNELS 3 Xrotation Zrotation Yrotation 
			JOINT neck
			{
				OFFSET 0.000000 10.266162 -0.273764
				CHANNELS 3 Xrotation Zrotation Yrotation 
				JOINT head
				{
					OFFSET 0.000000 3.148285 0.000000
					CHANNELS 3 Xrotation Zrotation Yrotation 
					End Site
					{
						OFFSET 0.000000 3.148289 0.000000
					}
				}
			}
			JOINT lCollar
			{
				OFFSET 3.422053 6.707223 -0.821293
				CHANNELS 3 Yrotation Zrotation Xrotation 
				JOINT lShldr
				{
					OFFSET 3.285171 0.000000 0.000000
					CHANNELS 3 Zrotation Yrotation Xrotation 
					JOINT lForeArm
					{
						OFFSET 10.129278 0.000000 0.000000
						CHANNELS 3 Yrotation Zrotation Xrotation 
						JOINT lHand
						{
							OFFSET 8.486692 0.000000 0.000000
							CHANNELS 3 Zrotation Yrotation Xrotation 
							End Site
							{
								OFFSET 4.106464 0.000000 0.000000
							}
						}
					}
				}
			}
			JOINT rCollar
			{
				OFFSET -3.558935 6.707223 -0.821293
				CHANNELS 3 Yrotation Zrotation Xrotation 
				JOINT rShldr
				{
					OFFSET -3.148289 0.000000 0.000000
					CHANNELS 3 Zrotation Yrotation Xrotation 
					JOINT rForeArm
					{
						OFFSET -10.266159 0.000000 0.000000
						CHANNELS 3 Yrotation Zrotation Xrotation 
						JOINT rHand
						{
							OFFSET -8.349810 0.000000 0.000000
							CHANNELS 3 Zrotation Yrotation Xrotation 
							End Site
							{
								OFFSET -4.106464 0.000000 0.000000
							}
						}
					}
				}
			}
		}
	}
	JOINT lThigh
	{
		OFFSET 5.338403 -1.642589 1.368821
		CHANNELS 3 Xrotation Zrotation Yrotation 
		JOINT lShin
		{
			OFFSET -2.053232 -20.121670 0.000000
			CHANNELS 3 Xrotation Zrotation Yrotation 
			JOINT lFoot
			{
				OFFSET 0.000000 -19.300380 -1.231939
				CHANNELS 3 Xrotation Yrotation Zrotation 
				End Site
				{
					OFFSET 0.000000 -2.463878 4.653993
				}
			}
		}
	}
	JOINT rThigh
	{
		OFFSET -5.338403 -1.642589 1.368821
		CHANNELS 3 Xrotation Zrotation Yrotation 
		JOINT rShin
		{
			OFFSET 2.053232 -20.121670 0.000000
			CHANNELS 3 Xrotation Zrotation Yrotation 
			JOINT rFoot
			{
				OFFSET 0.000000 -19.300380 -1.231939
				CHANNELS 3 Xrotation Yrotation Zrotation 
				End Site
				{
					OFFSET 0.000000 -2.463878 4.653993
				}
			}
		}
	}
}
MOTION
Frames: 10
Frame Time: 0.049897
0.000000 43.528500 0.000000 0.000000 0.000000 0.000000 0.000000 0.000000 0.000000 0.000000 0.000000 0.000000 0.000000 0.000000 0.000000 0.000000 0.000000 0.000000 0.000000 0.000000 0.000000 0.000000 0.000000 0.000000 0.000000 0.000000 0.000000 0.000000 0.000000 0.000000 0.000000 0.000000 0.000000 0.000000 0.000000 0.000000 0.000000 0.000000 0.000000 0.000000 0.000000 0.000000 0.000000 0.000000 0.000000 0.000000 0.000000 0.000000 0.000000 0.000000 0.000000 0.000000 0.000000 0.000000 0.000000 0.000000 0.000000 0.000000 0.000000 0.000000 
-0.000001 5.996777 39.994766 -94.004440 0.000000 0.000000 -0.344462 0.000000 0.000000 -0.442382 -0.001735 -0.449376 21.997025 0.000000 0.000000 8.998567 0.000000 0.000000 0.009030 -7.971126 -0.197434 -77.726288 -3.939391 -0.448613 -39.930557 4.624700 -0.011459 -16.323452 2.304994 0.268325 -0.012559 7.967625 -0.197188 77.708153 3.936592 -0.451432 58.928112 0.372877 -0.011836 16.319925 -2.308447 0.267903 -34.662247 31.988699 0.468334 95.768112 24.494762 -7.727125 14.147410 -7.016413 -4.742143 -34.661915 -31.993248 -0.470821 95.768822 -24.494480 7.721902 14.147710 7.012508 4.739069 
-0.000001 5.996777 39.994766 -94.004433 0.000000 0.000000 0.486904 0.000000 0.000000 -0.941858 -0.001654 -0.449454 20.890738 0.000000 0.000000 7.728034 0.000000 0.000000 0.226864 -7.084852 -0.671436 -78.391571 -3.728336 -0.342081 -40.547451 4.392746 0.052731 -16.370064 2.796554 0.019506 -0.398068 7.262638 -0.150601 78.320793 3.575297 -0.316164 59.823605 0.696051 0.001011 16.319927 -2.308447 0.267903 -34.925297 32.651093 0.938257 95.768112 24.494764 -7.727126 14.338871 -7.458940 -3.881305 -34.939705 -32.676819 -0.961842 95.768822 -24.494480 7.721902 14.340437 7.468551 3.846040 
-0.000001 5.996777 39.994766 -94.004440 0.000000 0.000000 1.318974 0.000000 0.000000 -1.441485 -0.001574 -0.449532 19.782787 0.000000 0.000000 6.454979 0.000000 0.000000 0.451977 -6.199226 -1.148608 -79.056717 -3.515935 -0.237975 -41.164223 4.159996 0.114425 -16.418856 3.288091 -0.229920 -0.782727 6.556801 -0.108827 78.932724 3.212353 -0.184742 60.720074 1.019746 0.008811 16.319925 -2.308447 0.267903 -35.184086 33.315983 1.408577 95.768127 24.494764 -7.727125 14.537455 -7.899059 -3.017095 -35.212921 -33.363144 -1.453276 95.768829 -24.494480 7.721901 14.540772 7.922105 2.949409 
-0.000001 5.996777 39.994766 -94.004448 0.000000 0.000000 2.151661 0.000000 0.000000 -1.941247 -0.001494 -0.449612 18.673378 0.000000 0.000000 5.179702 0.000000 0.000000 0.684414 -5.314467 -1.629090 -79.721664 -3.302230 -0.136316 -41.780849 3.926487 0.173615 -16.469833 3.779571 -0.479979 -1.166618 5.850215 -0.071851 79.543968 2.847829 -0.057184 61.617500 1.343839 0.011546 16.319927 -2.308447 0.267903 -35.438522 33.983250 1.879356 95.768112 24.494764 -7.727126 14.743152 -8.336594 -2.149537 -35.481503 -34.052113 -1.945197 95.768814 -24.494480 7.721903 14.748708 8.372976 2.049201 
-0.000001 5.996777 39.994766 -94.004440 0.000000 0.000000 2.984877 0.000000 0.000000 -2.441121 -0.001415 -0.449691 17.562717 0.000000 0.000000 3.902518 0.000000 0.000000 0.924222 -4.430803 -2.113022 -80.386391 -3.087265 -0.037125 -42.397308 3.692265 0.230288 -16.523010 4.270960 -0.730697 -1.549822 5.142982 -0.039654 80.154488 2.481795 0.066494 62.515785 1.668205 0.009199 16.319925 -2.308446 0.267903 -35.688526 34.652775 2.350662 95.768112 24.494761 -7.727124 14.955948 -8.771358 -1.278652 -35.745308 -34.743561 -2.437675 95.768822 -24.494478 7.721900 14.964241 8.820965 1.145444 
-0.000001 5.996777 39.994766 -94.004440 0.000000 0.000000 3.818534 0.000000 0.000000 -2.941092 -0.001337 -0.449772 16.451002 0.000000 0.000000 2.623738 0.000000 0.000000 1.171452 -3.548461 -2.600543 -81.050880 -2.871085 0.059578 -43.013573 3.457369 0.284436 -16.578390 4.762228 -0.982102 -1.932419 4.435202 -0.012223 80.764305 2.114322 0.186277 63.414879 1.992721 0.001756 16.319925 -2.308447 0.267903 -35.933975 35.324409 2.822576 95.768112 24.494762 -7.727126 15.175821 -9.203178 -0.404470 -36.004246 -35.437344 -2.930795 95.768822 -24.494480 7.721902 15.187345 9.265871 0.238166 
-0.000001 5.996777 39.994766 -94.004440 0.000000 0.000000 4.652545 0.000000 0.000000 -3.441138 -0.001259 -0.449853 15.338451 0.000000 0.000000 1.343681 0.000000 0.000000 1.426153 -2.667669 -3.091793 -81.715057 -2.653736 0.153776 -43.629639 3.221844 0.336051 -16.635988 5.253338 -1.234218 -2.314491 3.726977 0.010454 81.373413 1.745481 0.302149 64.314690 2.317260 -0.010792 16.319925 -2.308447 0.267903 -36.174793 35.998039 3.295168 95.768112 24.494762 -7.727125 15.402768 -9.631876 0.472979 -36.258205 -36.133339 -3.424636 95.768822 -24.494480 7.721902 15.417998 9.707496 -0.672597 
-0.000001 5.996777 39.994766 -94.004440 0.000000 0.000000 5.486821 0.000000 0.000000 -3.941242 -0.001182 -0.449935 14.225275 0.000000 0.000000 0.062663 0.000000 0.000000 1.688382 -1.788659 -3.586910 -82.378922 -2.435261 0.245449 -44.245476 2.985732 0.385125 -16.695814 5.744260 -1.487075 -2.696115 3.018406 0.028391 81.981796 1.375343 0.414099 65.215187 2.641698 -0.028452 16.319925 -2.308447 0.267903 -36.410866 36.673538 3.768523 95.768127 24.494764 -7.727125 15.636742 -10.057266 1.353659 -36.507050 -36.831371 -3.919294 95.768829 -24.494480 7.721901 15.656174 10.145642 -1.586804 
-0.000001 5.996777 39.994766 -94.004433 0.000000 0.000000 6.321274 0.000000 0.000000 -4.441382 -0.001106 -0.450017 13.111670 0.000000 0.000000 -1.218996 0.000000 0.000000 1.958194 -0.911662 -4.086036 -83.042435 -2.215707 0.334583 -44.861069 2.749076 0.431651 -16.757879 6.234961 -1.740698 -3.077373 2.309592 0.041595 82.589485 1.003981 0.522113 66.116272 2.965909 -0.051227 16.319925 -2.308447 0.267903 -36.642063 37.350750 4.242726 95.768112 24.494764 -7.727126 15.877728 -10.479182 2.237534 -36.750687 -37.531326 -4.414862 95.768822 -24.494480 7.721903 15.901840 10.580117 -2.504412 
